<?xml version="1.0" encoding="UTF-8"?>
<svg id="Capa_2" data-name="Capa 2" xmlns="http://www.w3.org/2000/svg" xmlns:xlink="http://www.w3.org/1999/xlink" viewBox="0 0 101 101">
  <defs>
    <style>
      .cls-1 {
        fill: #fff;
      }

      .cls-2 {
        fill: url(#Degradado_sin_nombre_2);
      }
    </style>
    <linearGradient id="Degradado_sin_nombre_2" data-name="Degradado sin nombre 2" x1="3.61" y1="50.5" x2="97.39" y2="50.5" gradientUnits="userSpaceOnUse">
      <stop offset="0" stop-color="#2ecc71"/>
      <stop offset=".38" stop-color="#2dc86e"/>
      <stop offset=".72" stop-color="#2abd68"/>
      <stop offset="1" stop-color="#27ae60"/>
    </linearGradient>
  </defs>
  <rect class="cls-2" x="3.61" y="3.61" width="93.79" height="93.79" rx="11.19" ry="11.19"/>
  <g>
    <path class="cls-1" d="M58.91,13.72c1.53-.21,2.33.86,3.3,1.87,11.74,12.25,14.69,30.35,7.01,45.63-.77,1.53-1.55,2.88-3.14,3.67-4.18,2.09-8.94-1.08-8.62-5.72.1-1.45.93-2.65,1.52-3.92,3.45-7.41,3.58-15.42.44-22.97-.51-1.23-1.37-2.15-.56-3.51.62-1.04,2.15-1.29,3.11-.56.8.62,1.7,3.08,2.06,4.1,3.19,8.87,2.39,18.68-2.22,26.89-.44,1.64,1.59,2.79,2.7,1.58.51-.55,1.32-2.41,1.66-3.17,5.72-12.91,3.13-28.15-6.47-38.43-.67-.72-2.25-1.95-2.43-2.86-.23-1.11.46-2.43,1.65-2.6Z"/>
    <path class="cls-1" d="M48.48,24.41c1.37-.19,2.54,1.2,3.4,2.12,6.06,6.56,8.16,16.11,5.29,24.63-1.36,4.04-3.92,6.33-2.59,10.99,2.04,7.17,11.51,9.01,16.02,3.05.86-1.14,1.04-2.39,2.86-2.24,1.33.11,2.28,1.64,1.81,2.88-.46,1.22-2.22,3.19-3.23,4.04-9.35,7.87-23.35.28-22.01-11.88.35-3.16,2-5.12,2.99-7.95,2.49-7.1.82-15.05-4.24-20.57-.53-.58-1.73-1.49-1.96-2.16-.46-1.3.27-2.72,1.67-2.91Z"/>
    <path class="cls-1" d="M33.37,41.2c1.74-.21,3.04,1.29,2.35,2.96-.39.95-1.01,1.92-1.43,2.89-4.81,11.01-2.78,24.43,5.17,33.42.73.82,2.55,2.29,2.67,3.34.17,1.53-1.22,2.7-2.71,2.36-.75-.18-1.61-1.16-2.14-1.72-10.27-10.86-12.8-27-6.28-40.52.49-1.02,1.11-2.56,2.37-2.72Z"/>
    <path class="cls-1" d="M46.7,48.43c1.14-.11,2.22.75,2.35,1.9.11.95-1,2.68-1.36,3.67-4,11.02,4.59,22.87,16.3,22.3.85-.04,2.39-.42,3.14-.09,1.95.86,1.67,3.69-.51,4.09-1.97.36-4.16.32-6.13.06-13.71-1.81-21.81-16.36-16.32-29.08.51-1.19,1.07-2.71,2.54-2.85Z"/>
    <path class="cls-1" d="M36.88,61.2c2.69-.42,2.59,2.47,3.04,4.26,2.54,10.19,10.89,17.13,21.27,18.27,1.05.12,1.92-.1,2.7.81,1.23,1.46.15,3.6-1.73,3.56-1.02-.02-2.28-.2-3.3-.37-11.57-1.84-20.83-10.64-23.32-22.07-.18-.84-.54-2.33-.25-3.1.25-.67.86-1.25,1.59-1.36Z"/>
    <path class="cls-1" d="M33.42,33.67c6.09-.26,10.85,5.26,9.87,11.24-.37,2.24-1.75,4.08-2.53,6.17-.73,1.96-.96,3.63-1.4,5.63-.56,2.56-4.28,2.02-4.25-.43.02-1.6.84-4.45,1.38-6,.6-1.74,1.46-3.1,2.15-4.72,2.06-4.86-3.02-9.46-7.56-6.89-.81.45-1.18,1.06-1.84,1.62-1.9,1.61-4.65-.73-2.97-3.07,1.54-2.14,4.58-3.42,7.16-3.53Z"/>
    <path class="cls-1" d="M25.15,80.15c-.52-.5-1.45-2.63-1.77-3.39-2.73-6.33-3.94-13.68-3.38-20.58.07-.82.16-1.94.32-2.73.4-1.96,3.03-2.28,3.99-.56.48.86.14,1.72.06,2.64-.6,6.85.29,13.3,2.98,19.61.33.78,1.3,2.47,1.39,3.19.25,1.89-2.2,3.15-3.59,1.84Z"/>
    <path class="cls-1" d="M78.3,37.43c.87-.12,1.83.29,2.26,1.07.32.57.37,2.39.4,3.11.16,4.81-.43,9.75-1.71,14.38-.28,1-.8,3-1.31,3.83-1.05,1.7-3.77,1.09-3.95-.91-.07-.74.6-2.28.83-3.07,1.3-4.42,2-8.99,1.86-13.61-.03-.94-.33-2.65-.01-3.47.25-.65.93-1.23,1.63-1.33Z"/>
    <path class="cls-1" d="M38.51,27.05c1.03-.14,2.83.8,3.74,1.32,5.2,2.97,8.58,8.59,8.69,14.62.02.98,0,1.79-.82,2.45-1.07.86-2.77.52-3.3-.78-.29-.73-.18-2.04-.27-2.88-.47-4.23-3.22-8.1-7.01-9.98-1.04-.52-2.31-.7-2.72-1.96-.39-1.2.42-2.61,1.69-2.78Z"/>
    <path class="cls-1" d="M18.25,37.89c1.33-.17,2.63.78,2.55,2.19-.04.81-.99,2.66-1.31,3.53-1.3,3.57-2.1,7.2-2.56,10.98-.1.82-.05,2.04-.47,2.74-.59.97-1.91,1.27-2.89.72-1.4-.78-1.09-2.14-.97-3.51.44-4.68,1.71-9.72,3.49-14.07.43-1.05.84-2.42,2.15-2.58Z"/>
    <path class="cls-1" d="M43.55,12.91c.82-.1,1.78.33,2.54.64,4,1.65,7.98,4.38,10.96,7.51.53.56,1.48,1.49,1.6,2.26.25,1.59-1.31,2.92-2.84,2.38-.82-.29-1.65-1.47-2.27-2.1-2.19-2.22-5.03-4.21-7.85-5.53-.8-.38-2.44-.86-3.06-1.31-1.47-1.07-.91-3.63.93-3.85Z"/>
    <path class="cls-1" d="M32.25,18.66c3.46-.18,7.08.32,10.3,1.58.61.24,1.28.48,1.69,1,.71.89.52,2.33-.39,3.02-1.24.94-2.38.13-3.62-.29-3.3-1.1-6.69-1.33-10.12-.73-1.15.2-2.35.77-3.4-.05-1.1-.85-1.04-2.57.05-3.41.82-.63,4.37-1.07,5.49-1.13Z"/>
    <path class="cls-1" d="M84.51,53.87c.94-.11,1.91.43,2.28,1.31.4.95-.13,2.25-.41,3.21-.82,2.88-2.17,6.79-3.65,9.38-1.42,2.48-4.73.93-4.02-1.48.25-.86.97-2.05,1.35-2.93.87-2,1.6-4.09,2.22-6.18.4-1.36.45-3.09,2.24-3.3Z"/>
    <path class="cls-1" d="M74.08,21.81c1.81-.23,2.32,1.14,2.92,2.5.86,1.93,1.76,4.33,2.27,6.38.3,1.21.19,2.55-1.18,3.02-2.72.93-2.99-2.14-3.58-3.91-.37-1.12-.81-2.23-1.26-3.32-.27-.66-.88-1.7-.94-2.37-.09-1.08.67-2.16,1.77-2.3Z"/>
    <path class="cls-1" d="M29.14,26.8c2.42-.3,3.42,3.06,1.1,4.1-1.17.52-2.2.78-3.34,1.49-.74.46-1.72,1.47-2.56,1.56-2.21.25-3.27-2.37-1.67-3.81,1.17-1.06,3.12-2.15,4.59-2.74.52-.21,1.35-.54,1.88-.61Z"/>
    <path class="cls-1" d="M75.24,71.68c1.97-.33,3.4,1.86,2.18,3.4-.57.72-3.41,2.79-4.28,2.89-1.38.16-2.5-.88-2.41-2.26.09-1.41,1.17-1.73,2.16-2.42.6-.42,1.7-1.5,2.36-1.61Z"/>
    <path class="cls-1" d="M86.09,42.42c1.28-.12,2.33.83,2.4,2.09.04.71-.06,2.81-.28,3.44-.51,1.43-2.25,1.89-3.41.92-.94-.79-.73-1.78-.69-2.87.06-1.48.01-3.38,1.97-3.57Z"/>
    <path class="cls-1" d="M24.41,42.78c1.24-.16,2.55.83,2.5,2.14-.02.56-.58,2.08-.82,2.64-1.14,2.65-4.77,1.49-4.08-1.34.31-1.28.9-3.25,2.41-3.45Z"/>
  </g>
</svg>