<?xml version="1.0" encoding="UTF-8"?>
<svg id="Capa_4" data-name="Capa 4" xmlns="http://www.w3.org/2000/svg" xmlns:xlink="http://www.w3.org/1999/xlink" viewBox="0 0 452 101">
  <defs>
    <style>
      .cls-1 {
        fill: #434949;
      }

      .cls-2 {
        fill: #27ae60;
      }

      .cls-3 {
        fill: #fff;
      }

      .cls-4 {
        fill: url(#Degradado_sin_nombre_2);
      }
    </style>
    <linearGradient id="Degradado_sin_nombre_2" data-name="Degradado sin nombre 2" x1="6.86" y1="51.05" x2="100.64" y2="51.05" gradientUnits="userSpaceOnUse">
      <stop offset="0" stop-color="#2ecc71"/>
      <stop offset=".38" stop-color="#2dc86e"/>
      <stop offset=".72" stop-color="#2abd68"/>
      <stop offset="1" stop-color="#27ae60"/>
    </linearGradient>
  </defs>
  <g>
    <rect class="cls-4" x="6.86" y="4.16" width="93.79" height="93.79" rx="46.89" ry="46.89"/>
    <g>
      <path class="cls-3" d="M61.13,18.79c1.35-.18,2.04.76,2.89,1.64,10.3,10.74,12.88,26.62,6.14,40.02-.68,1.34-1.36,2.52-2.76,3.22-3.66,1.84-7.84-.94-7.56-5.02.09-1.27.82-2.33,1.33-3.44,3.03-6.5,3.14-13.53.39-20.14-.45-1.08-1.2-1.88-.49-3.08.54-.92,1.89-1.13,2.72-.49.71.54,1.49,2.7,1.81,3.59,2.8,7.78,2.1,16.39-1.94,23.59-.39,1.44,1.39,2.45,2.37,1.39.45-.49,1.16-2.12,1.46-2.78,5.02-11.33,2.75-24.69-5.67-33.71-.59-.63-1.97-1.71-2.13-2.51-.2-.97.41-2.14,1.45-2.28Z"/>
      <path class="cls-3" d="M51.98,28.16c1.2-.17,2.23,1.05,2.98,1.86,5.32,5.75,7.16,14.13,4.64,21.6-1.19,3.54-3.44,5.55-2.27,9.64,1.79,6.29,10.1,7.9,14.06,2.67.76-1,.91-2.09,2.5-1.96,1.17.1,2,1.44,1.58,2.53-.41,1.07-1.95,2.8-2.84,3.55-8.2,6.9-20.48.25-19.3-10.42.31-2.78,1.75-4.49,2.62-6.97,2.19-6.23.72-13.2-3.71-18.04-.47-.51-1.51-1.31-1.72-1.89-.4-1.14.23-2.39,1.46-2.56Z"/>
      <path class="cls-3" d="M38.72,42.89c1.52-.19,2.66,1.13,2.06,2.6-.34.83-.89,1.69-1.26,2.54-4.22,9.66-2.44,21.43,4.54,29.31.64.72,2.24,2.01,2.34,2.93.15,1.34-1.07,2.37-2.38,2.07-.66-.15-1.41-1.02-1.88-1.51-9.01-9.52-11.23-23.68-5.51-35.54.43-.89.97-2.25,2.08-2.38Z"/>
      <path class="cls-3" d="M50.42,49.23c1-.09,1.95.66,2.06,1.66.09.83-.88,2.35-1.19,3.22-3.51,9.67,4.03,20.06,14.3,19.56.75-.04,2.1-.36,2.75-.08,1.71.75,1.46,3.24-.45,3.59-1.73.32-3.65.28-5.38.05-12.02-1.59-19.13-14.35-14.32-25.51.45-1.04.94-2.38,2.23-2.5Z"/>
      <path class="cls-3" d="M41.8,60.43c2.36-.37,2.27,2.16,2.67,3.74,2.23,8.94,9.55,15.02,18.66,16.02.92.1,1.69-.09,2.37.71,1.08,1.28.13,3.16-1.52,3.13-.89-.02-2-.18-2.89-.32-10.15-1.62-18.27-9.33-20.45-19.36-.16-.73-.47-2.04-.22-2.72.22-.59.76-1.1,1.39-1.2Z"/>
      <path class="cls-3" d="M38.77,36.29c5.34-.23,9.51,4.61,8.65,9.86-.32,1.97-1.53,3.58-2.22,5.41-.64,1.71-.84,3.19-1.22,4.93-.49,2.24-3.76,1.77-3.73-.38.02-1.4.74-3.9,1.21-5.27.52-1.52,1.28-2.72,1.88-4.14,1.81-4.26-2.65-8.3-6.63-6.05-.71.4-1.03.93-1.61,1.42-1.67,1.41-4.08-.64-2.6-2.69,1.35-1.88,4.01-3,6.28-3.1Z"/>
      <path class="cls-3" d="M31.52,77.05c-.46-.44-1.27-2.31-1.55-2.98-2.4-5.56-3.45-12-2.97-18.05.06-.72.14-1.7.28-2.4.35-1.72,2.66-2,3.5-.5.42.76.12,1.51.05,2.31-.53,6.01.25,11.67,2.61,17.2.29.68,1.14,2.16,1.22,2.79.22,1.66-1.93,2.76-3.15,1.61Z"/>
      <path class="cls-3" d="M78.13,39.59c.76-.1,1.6.26,1.98.94.28.5.33,2.1.35,2.73.14,4.22-.37,8.55-1.5,12.61-.24.88-.7,2.63-1.15,3.36-.92,1.5-3.31.96-3.47-.8-.06-.65.53-2,.73-2.7,1.14-3.87,1.75-7.89,1.63-11.94-.02-.83-.29-2.32,0-3.04.22-.57.82-1.08,1.43-1.16Z"/>
      <path class="cls-3" d="M43.23,30.48c.9-.12,2.49.7,3.28,1.16,4.56,2.61,7.52,7.54,7.62,12.82.02.86,0,1.57-.72,2.14-.94.76-2.43.45-2.89-.68-.26-.64-.16-1.79-.24-2.53-.41-3.71-2.82-7.1-6.15-8.75-.91-.45-2.03-.61-2.39-1.72-.34-1.06.37-2.29,1.48-2.44Z"/>
      <path class="cls-3" d="M25.47,39.99c1.17-.15,2.3.69,2.24,1.92-.04.71-.87,2.34-1.15,3.1-1.14,3.13-1.84,6.32-2.24,9.63-.09.72-.04,1.79-.41,2.4-.51.85-1.68,1.12-2.54.63-1.23-.69-.96-1.88-.85-3.08.39-4.11,1.5-8.53,3.06-12.34.38-.92.74-2.12,1.88-2.27Z"/>
      <path class="cls-3" d="M47.65,18.08c.72-.09,1.56.29,2.23.56,3.51,1.45,7,3.84,9.61,6.59.47.49,1.3,1.31,1.41,1.99.22,1.39-1.15,2.56-2.49,2.09-.72-.25-1.45-1.29-1.99-1.84-1.92-1.94-4.41-3.69-6.89-4.85-.71-.33-2.14-.75-2.69-1.15-1.29-.94-.8-3.18.82-3.38Z"/>
      <path class="cls-3" d="M37.74,23.12c3.03-.16,6.21.28,9.04,1.38.53.21,1.12.42,1.48.88.62.78.46,2.05-.34,2.65-1.09.83-2.09.11-3.18-.25-2.89-.97-5.87-1.17-8.88-.64-1.01.18-2.06.67-2.98-.04-.97-.75-.92-2.25.04-2.99.72-.55,3.83-.94,4.81-.99Z"/>
      <path class="cls-3" d="M83.58,54.01c.83-.1,1.67.38,2,1.15.35.83-.12,1.97-.36,2.81-.72,2.53-1.9,5.96-3.2,8.23-1.25,2.18-4.15.82-3.53-1.3.22-.76.85-1.8,1.18-2.57.76-1.76,1.4-3.58,1.94-5.42.35-1.19.4-2.71,1.97-2.9Z"/>
      <path class="cls-3" d="M74.43,25.89c1.58-.2,2.03,1,2.56,2.19.76,1.7,1.54,3.8,1.99,5.6.26,1.07.17,2.23-1.03,2.64-2.39.81-2.62-1.88-3.14-3.43-.33-.98-.71-1.95-1.11-2.91-.24-.58-.77-1.5-.82-2.08-.08-.95.58-1.89,1.55-2.02Z"/>
      <path class="cls-3" d="M35.02,30.26c2.12-.26,3,2.68.96,3.6-1.03.46-1.93.68-2.93,1.31-.65.41-1.51,1.29-2.24,1.37-1.94.22-2.87-2.07-1.47-3.34,1.03-.93,2.74-1.89,4.03-2.4.45-.18,1.18-.48,1.65-.53Z"/>
      <path class="cls-3" d="M75.45,69.63c1.73-.29,2.98,1.63,1.91,2.98-.5.63-2.99,2.45-3.76,2.54-1.21.14-2.19-.77-2.12-1.98.08-1.24,1.03-1.52,1.89-2.13.52-.37,1.49-1.31,2.07-1.41Z"/>
      <path class="cls-3" d="M84.96,43.96c1.12-.11,2.04.73,2.11,1.84.04.62-.05,2.46-.25,3.01-.45,1.25-1.97,1.66-2.99.8-.82-.7-.64-1.56-.6-2.52.05-1.29.01-2.97,1.73-3.13Z"/>
      <path class="cls-3" d="M30.87,44.28c1.09-.14,2.24.73,2.19,1.88-.02.49-.51,1.82-.72,2.32-1,2.32-4.18,1.3-3.58-1.17.27-1.12.79-2.85,2.11-3.02Z"/>
    </g>
  </g>
  <g>
    <path class="cls-1" d="M146.12,16.89h6.05l30.72,67.22h-6.97l-8.07-18.16h-37.69l-8.16,18.16h-6.6l30.72-67.22ZM165.29,60.17l-16.23-36.04-16.32,36.04h32.56Z"/>
    <path class="cls-1" d="M174.91,35.14h6.97l17.33,42,17.52-42h6.79l-21.64,49.34h-5.32l-21.64-49.34Z"/>
    <path class="cls-1" d="M219.94,59.72v-.18c0-14.21,10-25.59,23.38-25.59,14.21,0,22.74,11.46,22.74,25.86,0,1.01.09,1.19-.18,2.2h-39.62c1.01,11.28,9.08,17.79,18.16,17.79,7.06,0,12.01-3.03,16.05-7.34l3.94,3.58c-5.04,5.5-10.91,9.17-20.17,9.17-13.21,0-24.3-10.27-24.3-25.49ZM259.65,57.06c-.73-9.26-6.05-17.7-16.51-17.7-9.08,0-15.87,7.52-16.87,17.7h33.38Z"/>
    <path class="cls-1" d="M269.64,35.14h6.14v8.71c3.21-5.5,8.44-9.9,17.15-9.9,12.1,0,19.17,8.25,19.17,19.9v30.26h-6.14v-28.8c0-9.63-5.32-15.68-14.49-15.68s-15.68,6.69-15.68,16.32v28.15h-6.14v-48.97Z"/>
    <path class="cls-1" d="M321.17,71.27v-30.63h-6.97v-5.5h6.97v-15.22h6.14v15.22h16.32v5.5h-16.32v29.9c0,6.51,3.67,8.8,8.9,8.8,2.48,0,4.49-.55,7.15-1.74v5.5c-2.57,1.19-5.04,1.83-8.44,1.83-7.7,0-13.76-3.94-13.76-13.66Z"/>
    <path class="cls-2" d="M366.19,19.91h11.28v64.19h-11.28V19.91Z"/>
    <path class="cls-2" d="M384.07,19.91h23.94c20.18,0,34.11,13.85,34.11,31.91v.18c0,18.07-13.94,32.1-34.11,32.1h-23.94V19.91ZM395.35,30.19v43.65h12.66c13.48,0,22.28-9.08,22.28-21.64v-.18c0-12.56-8.8-21.83-22.28-21.83h-12.66Z"/>
  </g>
</svg>